<svg xmlns="http://www.w3.org/2000/svg" viewBox="0 0 136.69 166.25"><defs><style>.cls-1{fill:#235577;}.cls-2{fill:#2baa95;}</style></defs><g id="Layer_2" data-name="Layer 2"><g id="Layer_1-2" data-name="Layer 1"><path class="cls-1" d="M28.83,106.29c1.38-11.57-1.32-23.84-3.37-36.22-.76-4.6-3.54-11.54,3.2-13.29,5.59-1.46,9.19,4.31,11.1,9a174.19,174.19,0,0,1,7,22.09c2.48,9.74,5.72,19,11.72,27.24,12,16.44,27.5,18.26,42.19,4C115,105.18,120.9,86.91,124.41,67.79c1.4-7.6,1.86-15.37,3-23,.3-2.07.77-5,3.22-5.28,3.53-.41,3.55,3,4.18,5.35,3.44,12.85,1.57,25.77-.66,38.43a144.62,144.62,0,0,1-26.61,61.37,58.18,58.18,0,0,1-16,15.08c-24.29,15.11-54.2,2.82-60.72-24.81C28.63,125.81,29.11,116.59,28.83,106.29Z"/><path class="cls-2" d="M22.88,117.63,12.24,101.54s-6.13-9.29-8-12.46C3.43,87.83,2,85.28,1.32,84A10.14,10.14,0,0,1,0,78.18H0a8.42,8.42,0,0,1,1.82-2.6,5.51,5.51,0,0,1,2.08-1,10,10,0,0,1,3.63.78,41.27,41.27,0,0,1,7,4.41,36.33,36.33,0,0,1,3.64,3.38A25.71,25.71,0,0,1,21.06,87a28.24,28.24,0,0,1,1.56,4.68,46.81,46.81,0,0,1,1,6.23C24,102.83,22.88,117.63,22.88,117.63Z"/><path class="cls-2" d="M121.78,27h0l-1.19-5.44a10,10,0,0,0-2.71-4.94h0a5.22,5.22,0,0,0-4.36,1.65,7.89,7.89,0,0,0-1.84,3.38l-1.58,6.13-2.55,12.33c-.55,2.68-1,5.38-1.33,8.1A94.87,94.87,0,0,1,99.72,73v0a119.2,119.2,0,0,1,1-26.89h0a107.36,107.36,0,0,0,1.09-11.18l.79-17.74-.7-8.54A27.44,27.44,0,0,0,100,.56L99.46.34A3.89,3.89,0,0,0,94.11,2.9L92.21,10a1.83,1.83,0,0,0-.07.32l-2,11.29c-.53,2.92-1,5.86-1.3,8.8L87.16,44.6c-.12,1.1-.3,2.19-.51,3.28L86.42,49A40.39,40.39,0,0,1,79.21,65.2L80,27.25c0-.66,0-1.32,0-2l-.32-9a27.88,27.88,0,0,0-1.8-8.89l-.44-1.16h0a7.37,7.37,0,0,0-6.13.22l-.62.3a53.52,53.52,0,0,0-4,10.82l-.31,1.21a187.55,187.55,0,0,0-3.83,19.24L61,48.07,58.18,71.69,54.81,86.22l0,.36a26.14,26.14,0,0,0,3.09,15l.37.67a28.25,28.25,0,0,0,4.3,5.89l1.57,1.65a47.4,47.4,0,0,0,9.78,7.86A35.53,35.53,0,0,1,62.6,104.89C60.09,100,59.16,94.77,61,89.39,63.84,80.73,73.74,78.2,81,84.22c.88.73,1.64,2.07,2.56,2.17s1.9-1.09,2.89-1.65C92,81.63,97.93,82.15,102,86.22c3.13,3.12,3.93,7,3.57,11-.87,6.85-4.31,11.95-9.28,16.14a45.16,45.16,0,0,1-13.87,7.73,13.93,13.93,0,0,0,3,.07,15.22,15.22,0,0,0,4.46-1.07,25.14,25.14,0,0,0,6.52-3.92,31.3,31.3,0,0,0,5.7-6.24,73.57,73.57,0,0,0,7.64-14.06h0a149.19,149.19,0,0,0,7.5-23.63q1.38-6,2.21-12.19l.68-5.14A184.73,184.73,0,0,0,121.78,27Z"/></g></g></svg>