<svg xmlns="http://www.w3.org/2000/svg" viewBox="0 0 494.8 166.25"><defs><style>.cls-1{fill:#235577;}.cls-2{fill:#2baa95;}</style></defs><g id="Layer_2" data-name="Layer 2"><g id="Layer_1-2" data-name="Layer 1"><path class="cls-1" d="M28.83,106.29c1.38-11.57-1.32-23.84-3.37-36.22-.76-4.6-3.54-11.54,3.2-13.29,5.59-1.46,9.19,4.31,11.1,9a174.19,174.19,0,0,1,7,22.09c2.48,9.74,5.72,19,11.72,27.24,12,16.44,27.5,18.26,42.19,4C115,105.18,120.9,86.91,124.41,67.79c1.4-7.6,1.86-15.37,3-23,.3-2.07.77-5,3.22-5.28,3.53-.41,3.55,3,4.18,5.35,3.44,12.85,1.57,25.77-.66,38.43a144.62,144.62,0,0,1-26.61,61.37,58.18,58.18,0,0,1-16,15.08c-24.29,15.11-54.2,2.82-60.72-24.81C28.63,125.81,29.11,116.59,28.83,106.29Z"/><path class="cls-2" d="M22.88,117.63,12.24,101.54s-6.13-9.29-8-12.46C3.43,87.83,2,85.28,1.32,84A10.14,10.14,0,0,1,0,78.18H0a8.42,8.42,0,0,1,1.82-2.6,5.51,5.51,0,0,1,2.08-1,10,10,0,0,1,3.63.78,41.27,41.27,0,0,1,7,4.41,36.33,36.33,0,0,1,3.64,3.38A25.71,25.71,0,0,1,21.06,87a28.24,28.24,0,0,1,1.56,4.68,46.81,46.81,0,0,1,1,6.23C24,102.83,22.88,117.63,22.88,117.63Z"/><path class="cls-2" d="M121.78,27h0l-1.19-5.44a10,10,0,0,0-2.71-4.94h0a5.22,5.22,0,0,0-4.36,1.65,7.89,7.89,0,0,0-1.84,3.38l-1.58,6.13-2.55,12.33c-.55,2.68-1,5.38-1.33,8.1A94.87,94.87,0,0,1,99.72,73v0a119.2,119.2,0,0,1,1-26.89h0a107.36,107.36,0,0,0,1.09-11.18l.79-17.74-.7-8.54A27.44,27.44,0,0,0,100,.56L99.46.34A3.89,3.89,0,0,0,94.11,2.9L92.21,10a1.83,1.83,0,0,0-.07.32l-2,11.29c-.53,2.92-1,5.86-1.3,8.8L87.16,44.6c-.12,1.1-.3,2.19-.51,3.28L86.42,49A40.39,40.39,0,0,1,79.21,65.2L80,27.25c0-.66,0-1.32,0-2l-.32-9a27.88,27.88,0,0,0-1.8-8.89l-.44-1.16h0a7.37,7.37,0,0,0-6.13.22l-.62.3a53.52,53.52,0,0,0-4,10.82l-.31,1.21a187.55,187.55,0,0,0-3.83,19.24L61,48.07,58.18,71.69,54.81,86.22l0,.36a26.14,26.14,0,0,0,3.09,15l.37.67a28.25,28.25,0,0,0,4.3,5.89l1.57,1.65a47.4,47.4,0,0,0,9.78,7.86A35.53,35.53,0,0,1,62.6,104.89C60.09,100,59.16,94.77,61,89.39,63.84,80.73,73.74,78.2,81,84.22c.88.73,1.64,2.07,2.56,2.17s1.9-1.09,2.89-1.65C92,81.63,97.93,82.15,102,86.22c3.13,3.12,3.93,7,3.57,11-.87,6.85-4.31,11.95-9.28,16.14a45.16,45.16,0,0,1-13.87,7.73,13.93,13.93,0,0,0,3,.07,15.22,15.22,0,0,0,4.46-1.07,25.14,25.14,0,0,0,6.52-3.92,31.3,31.3,0,0,0,5.7-6.24,73.57,73.57,0,0,0,7.64-14.06h0a149.19,149.19,0,0,0,7.5-23.63q1.38-6,2.21-12.19l.68-5.14A184.73,184.73,0,0,0,121.78,27Z"/><path class="cls-1" d="M197.81,101.35a7.27,7.27,0,0,0,.08,1.1,6,6,0,0,1,.09,1.09v2.07c.11,1.39.19,2.81.25,4.27s.08,2.84.08,4.14a57.41,57.41,0,0,1-.92,10.6,18.21,18.21,0,0,1-3.86,8.41,19.78,19.78,0,0,1-8.3,5.61q-5.39,2.07-14.27,2.07a32.52,32.52,0,0,1-8.22-1.1,23.79,23.79,0,0,1-7.55-3.41,19.24,19.24,0,0,1-5.54-5.85,16.84,16.84,0,0,1-2.35-8.41v-.73q0-6.57,3.36-10.54a23,23,0,0,1,8.22-6.15,37.17,37.17,0,0,1,10.57-2.93,83.78,83.78,0,0,1,10.41-.73h2.35q-.51-5.73-3.19-8.59A9.21,9.21,0,0,0,172,89.41a12,12,0,0,0-6.29,2.19,36.36,36.36,0,0,0-7,6l-11.24-7.31A33,33,0,0,1,159,81.67a30.94,30.94,0,0,1,12.83-3.11q12.09,0,18.88,5.49T197.81,101.35ZM181,111.71a45.51,45.51,0,0,0-6.12.42,22.67,22.67,0,0,0-5.71,1.53,12.9,12.9,0,0,0-4.36,2.92,7.17,7.17,0,0,0-1.93,4.75v.37q.33,4.27,2.94,6.22a8.57,8.57,0,0,0,5.11,1.94,13,13,0,0,0,6.21-1.27,8.87,8.87,0,0,0,3.52-3.3,12.05,12.05,0,0,0,1.52-4.56,40.12,40.12,0,0,0,.33-5.12v-3.9Z"/><path class="cls-1" d="M205.86,104.27a30.27,30.27,0,0,1,2-11.57,20.87,20.87,0,0,1,5.7-8A23.27,23.27,0,0,1,222.22,80a38.28,38.28,0,0,1,10.83-1.46q7.88,0,12.58,2.26a18.4,18.4,0,0,1,7.13,5.6A18.1,18.1,0,0,1,256,93.86a42.9,42.9,0,0,1,.76,7.73v37.78H241.1V101.59a34.45,34.45,0,0,0-.25-4.08,11.74,11.74,0,0,0-1.18-4,8.1,8.1,0,0,0-2.51-3,6.8,6.8,0,0,0-4.11-1.16q-5.88,0-8.64,4.14t-2.77,10.85v35H206Z"/><path class="cls-1" d="M315.77,115.36a30.18,30.18,0,0,1-2,11.64,21.08,21.08,0,0,1-5.71,8,23,23,0,0,1-8.64,4.63,37.9,37.9,0,0,1-10.82,1.47q-7.89,0-12.59-2.26a18.15,18.15,0,0,1-7.13-5.66,18.77,18.77,0,0,1-3.19-7.44,41.88,41.88,0,0,1-.75-7.67V80.27h15.6v37.78a36.71,36.71,0,0,0,.25,4.08,11.74,11.74,0,0,0,1.18,4,8,8,0,0,0,2.52,3,6.76,6.76,0,0,0,4.11,1.16q5.87,0,8.64-4.14T300,115.24v-35h15.6Z"/><path class="cls-1" d="M378,110.12q0,10.6-3.1,16.82a23.15,23.15,0,0,1-17,13.28,49.52,49.52,0,0,1-8.38.86,31.2,31.2,0,0,1-12.42-2.32A25.41,25.41,0,0,1,328,132.3a27.06,27.06,0,0,1-5.54-9.93,41.32,41.32,0,0,1-1.85-12.61,39.28,39.28,0,0,1,1.93-12.55,27.45,27.45,0,0,1,5.71-9.87,26.52,26.52,0,0,1,9.06-6.46,30.12,30.12,0,0,1,12.17-2.32,29.39,29.39,0,0,1,13.08,2.8V56.75h15.61Zm-15.27-.36a36.18,36.18,0,0,0-.84-8,21.5,21.5,0,0,0-2.51-6.46A13.1,13.1,0,0,0,355.2,91a10.53,10.53,0,0,0-5.7-1.58A10.86,10.86,0,0,0,343.62,91a13,13,0,0,0-4.19,4.33,20,20,0,0,0-2.44,6.46,40.36,40.36,0,0,0-.75,8,41,41,0,0,0,.75,8.1,20.69,20.69,0,0,0,2.44,6.52,12.81,12.81,0,0,0,4.19,4.39,10.86,10.86,0,0,0,5.88,1.58q6.54,0,9.9-4.87T362.75,109.76Z"/><path class="cls-1" d="M435.91,101.35a6.17,6.17,0,0,0,.08,1.1,6,6,0,0,1,.09,1.09v2.07c.11,1.39.19,2.81.25,4.27s.08,2.84.08,4.14a57.41,57.41,0,0,1-.92,10.6,18.21,18.21,0,0,1-3.86,8.41,19.75,19.75,0,0,1-8.31,5.61q-5.37,2.07-14.26,2.07a32.46,32.46,0,0,1-8.22-1.1,23.69,23.69,0,0,1-7.55-3.41,19.24,19.24,0,0,1-5.54-5.85,16.84,16.84,0,0,1-2.35-8.41v-.73q0-6.57,3.36-10.54a22.87,22.87,0,0,1,8.22-6.15,37.17,37.17,0,0,1,10.57-2.93,83.75,83.75,0,0,1,10.4-.73h2.35c-.33-3.82-1.4-6.68-3.18-8.59a9.22,9.22,0,0,0-7.05-2.86,11.93,11.93,0,0,0-6.29,2.19,36.36,36.36,0,0,0-7,6l-11.24-7.31a33,33,0,0,1,11.49-8.59,31,31,0,0,1,12.84-3.11q12.08,0,18.88,5.49T435.91,101.35Zm-16.78,10.36a45.77,45.77,0,0,0-6.13.42,22.71,22.71,0,0,0-5.7,1.53,12.8,12.8,0,0,0-4.36,2.92,7.17,7.17,0,0,0-1.93,4.75v.37q.33,4.27,2.93,6.22a8.61,8.61,0,0,0,5.12,1.94,13,13,0,0,0,6.21-1.27,8.94,8.94,0,0,0,3.52-3.3,12,12,0,0,0,1.51-4.56,38.4,38.4,0,0,0,.34-5.12v-3.9Z"/><path class="cls-1" d="M444,104.27a30.08,30.08,0,0,1,2-11.57,20.87,20.87,0,0,1,5.7-8A23.27,23.27,0,0,1,460.32,80a38.28,38.28,0,0,1,10.83-1.46q7.88,0,12.58,2.26a18.4,18.4,0,0,1,7.13,5.6,18.1,18.1,0,0,1,3.19,7.44,42.85,42.85,0,0,1,.75,7.73v37.78H479.2V101.59a34.45,34.45,0,0,0-.25-4.08,11.74,11.74,0,0,0-1.18-4,8.1,8.1,0,0,0-2.51-3,6.8,6.8,0,0,0-4.11-1.16q-5.88,0-8.65,4.14t-2.76,10.85v35H444.13Z"/></g></g></svg>